<?xml version="1.0" encoding="utf-8"?>
<!-- Generator: Adobe Illustrator 26.0.2, SVG Export Plug-In . SVG Version: 6.00 Build 0)  -->
<svg version="1.1" id="Layer_1" xmlns="http://www.w3.org/2000/svg" xmlns:xlink="http://www.w3.org/1999/xlink" x="0px" y="0px"
	 viewBox="0 0 1000 1000" enable-background="new 0 0 1000 1000" xml:space="preserve">
<g>
	<path fill="#FFFFFF" d="M500,953.7L107.1,726.9V273.2L500,46.3l392.9,226.9v453.7L500,953.7z M147.9,703.3L500,906.6l352.1-203.3
		V296.7L500,93.4L147.9,296.7V703.3z"/>
	<g>
		<g>
			
				<radialGradient id="SVGID_1_" cx="832.9127" cy="249.4832" r="445.3288" fx="1215.2289" fy="248.2139" gradientTransform="matrix(0.8377 -0.5462 1.2737 1.9536 -496.0606 454.873)" gradientUnits="userSpaceOnUse">
				<stop  offset="3.745849e-02" style="stop-color:#D51E69"/>
				<stop  offset="0.1445" style="stop-color:#B41E7C"/>
				<stop  offset="0.2727" style="stop-color:#921D90"/>
				<stop  offset="0.3423" style="stop-color:#851D97"/>
				<stop  offset="0.4122" style="stop-color:#7C209D"/>
				<stop  offset="0.526" style="stop-color:#6426AE"/>
				<stop  offset="0.6508" style="stop-color:#4230C5"/>
				<stop  offset="0.7123" style="stop-color:#3C39CC"/>
				<stop  offset="0.8102" style="stop-color:#2A50E0"/>
				<stop  offset="0.8792" style="stop-color:#1B64F2"/>
			</radialGradient>
			<polygon fill="url(#SVGID_1_)" points="852.1,296.7 852.1,703.3 500,906.6 147.9,703.3 147.9,296.7 500,93.4 			"/>
			
				<radialGradient id="SVGID_00000082359293088741269110000007390271525573138561_" cx="837.3673" cy="246.3415" r="547.4185" fx="1307.3278" fy="244.7812" gradientTransform="matrix(0.8377 -0.5462 1.2737 1.9536 -491.6399 460.0742)" gradientUnits="userSpaceOnUse">
				<stop  offset="3.745849e-02" style="stop-color:#D51E69"/>
				<stop  offset="0.1445" style="stop-color:#B41E7C"/>
				<stop  offset="0.2727" style="stop-color:#921D90"/>
				<stop  offset="0.3423" style="stop-color:#851D97"/>
				<stop  offset="0.4122" style="stop-color:#7C209D"/>
				<stop  offset="0.526" style="stop-color:#6426AE"/>
				<stop  offset="0.6508" style="stop-color:#4230C5"/>
				<stop  offset="0.7123" style="stop-color:#3C39CC"/>
				<stop  offset="0.8102" style="stop-color:#2A50E0"/>
				<stop  offset="0.8792" style="stop-color:#1B64F2"/>
			</radialGradient>
			<path fill="url(#SVGID_00000082359293088741269110000007390271525573138561_)" d="M500.2,0L67.3,249.9V749l432.2,251l432.7-250.9
				l0.5-499.2L500.2,0z M892.9,726.9L500,953.7L107.1,726.8V273.2L500,46.3l392.9,226.9V726.9L892.9,726.9z"/>
		</g>
		<g opacity="0.2">
			<polygon fill="#FFFFFF" points="852.1,296.7 852.1,703.3 500,906.6 147.9,703.3 147.9,296.7 500,93.4 			"/>
		</g>
	</g>
	<path fill="#FFFFFF" d="M628.1,519v96.1c0,29.4-23.9,53.3-53.3,53.3H383.5c-29.4,0-53.3-23.9-53.3-53.3V405.7
		c0-19.4,15.8-35.2,35.2-35.2h116.7c10,0,18.1-8.1,18.1-18.1v0c0-10-8.1-18.1-18.1-18.1H365.4c-39.4,0-71.4,32-71.4,71.4v209.4
		c0,49.4,40.1,89.5,89.5,89.5h191.3c49.4,0,89.5-40.1,89.5-89.5V519c0-10-8.1-18.1-18.1-18.1h0C636.2,500.9,628.1,509,628.1,519z"/>
	<path fill="#FFFFFF" d="M621.1,330.4c27.6,0,50,22.4,50,50c0,27.6-22.4,50-50,50c-27.6,0-50-22.4-50-50
		C571.1,352.8,593.5,330.4,621.1,330.4 M621.1,295.4c-46.9,0-85,38-85,85c0,46.9,38,85,85,85c46.9,0,85-38,85-85
		C706,333.4,668,295.4,621.1,295.4L621.1,295.4z"/>
</g>
</svg>
