<svg width="94px" height="94px" viewBox="0 0 94 94" version="1.1" xmlns="http://www.w3.org/2000/svg" xmlns:xlink="http://www.w3.org/1999/xlink">
	<g id="Page-1" stroke="none" stroke-width="1" fill="none" fill-rule="evenodd">
		<g id="Artboard" transform="translate(-45.000000, -30.000000)">
			<g id="craft-notifications" transform="translate(45.000000, 30.000000)">
				<circle id="background" fill="#4DC0B5" cx="47" cy="47" r="47"/>
				<g id="icon" transform="translate(25.000000, 25.000000)" fill="#FFFFFF" fill-rule="nonzero">
					<path d="M38.9995052,36.6050521 C38.9995052,40.7070339 35.6798615,44 31.6046512,44 L7.39485403,44 C3.31964374,44 0,40.7070339 0,36.6050521 L0,12.3949479 C0,8.31968586 3.31964374,5 7.39485403,5 L21.3483424,5 C22.4819396,5 23.3725878,5.89065949 23.3725878,7.02427111 C23.3725878,7.15935446 23.3453736,7.29394301 23.3453736,7.42902636 C23.1563582,8.34690045 22.346858,9.04854221 21.3483424,9.04854221 L7.39485403,9.04854221 C6.47699159,9.04854221 5.6407719,9.39936309 5.04700643,10.0203507 C4.42602672,10.6413383 4.04849085,11.4775686 4.04849085,12.3954427 L4.04849085,36.6050521 C4.04849085,38.4675201 5.56011875,39.9519526 7.39534884,39.9519526 L31.6046512,39.9519526 C33.4398812,39.9519526 34.9515092,38.4675201 34.9515092,36.6050521 L34.9515092,22.6781065 C34.9515092,21.5444949 35.8693716,20.6538354 36.9757546,20.6538354 C38.1093518,20.6538354 39,21.5444949 39,22.6781065 L39,36.6050521 L38.9995052,36.6050521 Z"
						  id="Shape"/>
					<path d="M40.8148338,8.99975735 C40.8148338,6.22048475 38.4434783,3.97018145 35.513555,3.97018145 C32.5836317,3.97018145 30.2122762,6.21999946 30.1846547,8.99975735 C30.2127877,11.77903 32.5841432,14.0293333 35.513555,14.0293333 C38.4429668,14.0293333 40.8148338,11.7795152 40.8148338,8.99975735 Z M35.5140665,0 C40.7590793,0 45,4.02356367 45,8.99975735 C45,13.5789814 41.401023,17.3642663 36.741688,17.920412 C36.3232737,17.9733089 35.9324808,18 35.5140665,18 C30.2685422,18 26,13.9764363 26,9.00024265 C26,8.68237578 26.028133,8.39120002 26.0557545,8.07381845 C26.5575448,3.54700601 30.6035806,0 35.5140665,0 Z"
						  id="Shape"/>
				</g>
			</g>
		</g>
	</g>
</svg>